<mxfile host="app.diagrams.net" agent="Mozilla/5.0 (Windows NT 10.0; Win64; x64) AppleWebKit/537.36 (KHTML, like Gecko) Chrome/129.0.0.0 Safari/537.36" version="24.7.17">
  <diagram name="PÃ¡gina-1" id="bvBXdqP8SnwpCs2hBnLd">
    <mxGraphModel dx="1178" dy="918" grid="0" gridSize="10" guides="1" tooltips="1" connect="1" arrows="1" fold="1" page="0" pageScale="1" pageWidth="827" pageHeight="1169" math="0" shadow="0">
      <root>
        <mxCell id="0" />
        <mxCell id="1" parent="0" />
        <mxCell id="WioVrjb9ytI4kB3D4JNt-47" value="cadastro" style="swimlane;fontStyle=0;childLayout=stackLayout;horizontal=1;startSize=26;horizontalStack=0;resizeParent=1;resizeParentMax=0;resizeLast=0;collapsible=1;marginBottom=0;align=center;fontSize=14;" vertex="1" parent="1">
          <mxGeometry x="-13" y="-72" width="160" height="116" as="geometry" />
        </mxCell>
        <mxCell id="WioVrjb9ytI4kB3D4JNt-48" value="id" style="text;strokeColor=none;fillColor=none;spacingLeft=4;spacingRight=4;overflow=hidden;rotatable=0;points=[[0,0.5],[1,0.5]];portConstraint=eastwest;fontSize=12;whiteSpace=wrap;html=1;" vertex="1" parent="WioVrjb9ytI4kB3D4JNt-47">
          <mxGeometry y="26" width="160" height="30" as="geometry" />
        </mxCell>
        <mxCell id="WioVrjb9ytI4kB3D4JNt-49" value="senha" style="text;strokeColor=none;fillColor=none;spacingLeft=4;spacingRight=4;overflow=hidden;rotatable=0;points=[[0,0.5],[1,0.5]];portConstraint=eastwest;fontSize=12;whiteSpace=wrap;html=1;" vertex="1" parent="WioVrjb9ytI4kB3D4JNt-47">
          <mxGeometry y="56" width="160" height="30" as="geometry" />
        </mxCell>
        <mxCell id="WioVrjb9ytI4kB3D4JNt-50" value="email" style="text;strokeColor=none;fillColor=none;spacingLeft=4;spacingRight=4;overflow=hidden;rotatable=0;points=[[0,0.5],[1,0.5]];portConstraint=eastwest;fontSize=12;whiteSpace=wrap;html=1;" vertex="1" parent="WioVrjb9ytI4kB3D4JNt-47">
          <mxGeometry y="86" width="160" height="30" as="geometry" />
        </mxCell>
        <mxCell id="WioVrjb9ytI4kB3D4JNt-100" style="edgeStyle=none;curved=1;rounded=0;orthogonalLoop=1;jettySize=auto;html=1;entryX=1;entryY=0.5;entryDx=0;entryDy=0;fontSize=12;startSize=8;endSize=8;" edge="1" parent="1" source="WioVrjb9ytI4kB3D4JNt-51" target="WioVrjb9ytI4kB3D4JNt-57">
          <mxGeometry relative="1" as="geometry" />
        </mxCell>
        <mxCell id="WioVrjb9ytI4kB3D4JNt-51" value="usuarios" style="swimlane;fontStyle=0;childLayout=stackLayout;horizontal=1;startSize=26;horizontalStack=0;resizeParent=1;resizeParentMax=0;resizeLast=0;collapsible=1;marginBottom=0;align=center;fontSize=14;" vertex="1" parent="1">
          <mxGeometry x="249" y="-237" width="160" height="266" as="geometry" />
        </mxCell>
        <mxCell id="WioVrjb9ytI4kB3D4JNt-52" value="id" style="text;strokeColor=none;fillColor=none;spacingLeft=4;spacingRight=4;overflow=hidden;rotatable=0;points=[[0,0.5],[1,0.5]];portConstraint=eastwest;fontSize=12;whiteSpace=wrap;html=1;" vertex="1" parent="WioVrjb9ytI4kB3D4JNt-51">
          <mxGeometry y="26" width="160" height="30" as="geometry" />
        </mxCell>
        <mxCell id="WioVrjb9ytI4kB3D4JNt-53" value="nome" style="text;strokeColor=none;fillColor=none;spacingLeft=4;spacingRight=4;overflow=hidden;rotatable=0;points=[[0,0.5],[1,0.5]];portConstraint=eastwest;fontSize=12;whiteSpace=wrap;html=1;" vertex="1" parent="WioVrjb9ytI4kB3D4JNt-51">
          <mxGeometry y="56" width="160" height="30" as="geometry" />
        </mxCell>
        <mxCell id="WioVrjb9ytI4kB3D4JNt-77" value="email" style="text;strokeColor=none;fillColor=none;spacingLeft=4;spacingRight=4;overflow=hidden;rotatable=0;points=[[0,0.5],[1,0.5]];portConstraint=eastwest;fontSize=12;whiteSpace=wrap;html=1;" vertex="1" parent="WioVrjb9ytI4kB3D4JNt-51">
          <mxGeometry y="86" width="160" height="30" as="geometry" />
        </mxCell>
        <mxCell id="WioVrjb9ytI4kB3D4JNt-75" value="telefone" style="text;strokeColor=none;fillColor=none;spacingLeft=4;spacingRight=4;overflow=hidden;rotatable=0;points=[[0,0.5],[1,0.5]];portConstraint=eastwest;fontSize=12;whiteSpace=wrap;html=1;" vertex="1" parent="WioVrjb9ytI4kB3D4JNt-51">
          <mxGeometry y="116" width="160" height="30" as="geometry" />
        </mxCell>
        <mxCell id="WioVrjb9ytI4kB3D4JNt-54" value="sexo" style="text;strokeColor=none;fillColor=none;spacingLeft=4;spacingRight=4;overflow=hidden;rotatable=0;points=[[0,0.5],[1,0.5]];portConstraint=eastwest;fontSize=12;whiteSpace=wrap;html=1;" vertex="1" parent="WioVrjb9ytI4kB3D4JNt-51">
          <mxGeometry y="146" width="160" height="30" as="geometry" />
        </mxCell>
        <mxCell id="WioVrjb9ytI4kB3D4JNt-73" value="datadenascimento" style="text;strokeColor=none;fillColor=none;spacingLeft=4;spacingRight=4;overflow=hidden;rotatable=0;points=[[0,0.5],[1,0.5]];portConstraint=eastwest;fontSize=12;whiteSpace=wrap;html=1;" vertex="1" parent="WioVrjb9ytI4kB3D4JNt-51">
          <mxGeometry y="176" width="160" height="30" as="geometry" />
        </mxCell>
        <mxCell id="WioVrjb9ytI4kB3D4JNt-74" value="cidade" style="text;strokeColor=none;fillColor=none;spacingLeft=4;spacingRight=4;overflow=hidden;rotatable=0;points=[[0,0.5],[1,0.5]];portConstraint=eastwest;fontSize=12;whiteSpace=wrap;html=1;" vertex="1" parent="WioVrjb9ytI4kB3D4JNt-51">
          <mxGeometry y="206" width="160" height="30" as="geometry" />
        </mxCell>
        <mxCell id="WioVrjb9ytI4kB3D4JNt-76" value="endereco" style="text;strokeColor=none;fillColor=none;spacingLeft=4;spacingRight=4;overflow=hidden;rotatable=0;points=[[0,0.5],[1,0.5]];portConstraint=eastwest;fontSize=12;whiteSpace=wrap;html=1;" vertex="1" parent="WioVrjb9ytI4kB3D4JNt-51">
          <mxGeometry y="236" width="160" height="30" as="geometry" />
        </mxCell>
        <mxCell id="WioVrjb9ytI4kB3D4JNt-55" value="contador" style="swimlane;fontStyle=0;childLayout=stackLayout;horizontal=1;startSize=26;horizontalStack=0;resizeParent=1;resizeParentMax=0;resizeLast=0;collapsible=1;marginBottom=0;align=center;fontSize=14;" vertex="1" parent="1">
          <mxGeometry x="-64" y="138" width="163" height="150" as="geometry">
            <mxRectangle x="-79" y="146" width="89" height="29" as="alternateBounds" />
          </mxGeometry>
        </mxCell>
        <mxCell id="WioVrjb9ytI4kB3D4JNt-56" value="id" style="text;strokeColor=none;fillColor=none;spacingLeft=4;spacingRight=4;overflow=hidden;rotatable=0;points=[[0,0.5],[1,0.5]];portConstraint=eastwest;fontSize=12;whiteSpace=wrap;html=1;" vertex="1" parent="WioVrjb9ytI4kB3D4JNt-55">
          <mxGeometry y="26" width="163" height="30" as="geometry" />
        </mxCell>
        <mxCell id="WioVrjb9ytI4kB3D4JNt-57" value="total_usuarios" style="text;strokeColor=none;fillColor=none;spacingLeft=4;spacingRight=4;overflow=hidden;rotatable=0;points=[[0,0.5],[1,0.5]];portConstraint=eastwest;fontSize=12;whiteSpace=wrap;html=1;" vertex="1" parent="WioVrjb9ytI4kB3D4JNt-55">
          <mxGeometry y="56" width="163" height="30" as="geometry" />
        </mxCell>
        <mxCell id="WioVrjb9ytI4kB3D4JNt-58" value="total_venda" style="text;strokeColor=none;fillColor=none;spacingLeft=4;spacingRight=4;overflow=hidden;rotatable=0;points=[[0,0.5],[1,0.5]];portConstraint=eastwest;fontSize=12;whiteSpace=wrap;html=1;" vertex="1" parent="WioVrjb9ytI4kB3D4JNt-55">
          <mxGeometry y="86" width="163" height="28" as="geometry" />
        </mxCell>
        <mxCell id="WioVrjb9ytI4kB3D4JNt-67" value="&lt;span style=&quot;color: rgb(0, 0, 0); font-family: Helvetica; font-size: 12px; font-style: normal; font-variant-ligatures: normal; font-variant-caps: normal; font-weight: 400; letter-spacing: normal; orphans: 2; text-align: left; text-indent: 0px; text-transform: none; widows: 2; word-spacing: 0px; -webkit-text-stroke-width: 0px; white-space: normal; background-color: rgb(255, 255, 255); text-decoration-thickness: initial; text-decoration-style: initial; text-decoration-color: initial; display: inline !important; float: none;&quot;&gt;total_estoque&lt;/span&gt;" style="text;whiteSpace=wrap;html=1;" vertex="1" parent="WioVrjb9ytI4kB3D4JNt-55">
          <mxGeometry y="114" width="163" height="36" as="geometry" />
        </mxCell>
        <mxCell id="WioVrjb9ytI4kB3D4JNt-99" style="edgeStyle=none;curved=1;rounded=0;orthogonalLoop=1;jettySize=auto;html=1;entryX=1;entryY=0.25;entryDx=0;entryDy=0;fontSize=12;startSize=8;endSize=8;" edge="1" parent="1" source="WioVrjb9ytI4kB3D4JNt-59" target="WioVrjb9ytI4kB3D4JNt-67">
          <mxGeometry relative="1" as="geometry" />
        </mxCell>
        <mxCell id="WioVrjb9ytI4kB3D4JNt-59" value="estoque" style="swimlane;fontStyle=0;childLayout=stackLayout;horizontal=1;startSize=26;horizontalStack=0;resizeParent=1;resizeParentMax=0;resizeLast=0;collapsible=1;marginBottom=0;align=center;fontSize=14;" vertex="1" parent="1">
          <mxGeometry x="313" y="192" width="146" height="211" as="geometry" />
        </mxCell>
        <mxCell id="WioVrjb9ytI4kB3D4JNt-60" value="cod" style="text;strokeColor=none;fillColor=none;spacingLeft=4;spacingRight=4;overflow=hidden;rotatable=0;points=[[0,0.5],[1,0.5]];portConstraint=eastwest;fontSize=12;whiteSpace=wrap;html=1;" vertex="1" parent="WioVrjb9ytI4kB3D4JNt-59">
          <mxGeometry y="26" width="146" height="30" as="geometry" />
        </mxCell>
        <mxCell id="WioVrjb9ytI4kB3D4JNt-61" value="tipo" style="text;strokeColor=none;fillColor=none;spacingLeft=4;spacingRight=4;overflow=hidden;rotatable=0;points=[[0,0.5],[1,0.5]];portConstraint=eastwest;fontSize=12;whiteSpace=wrap;html=1;" vertex="1" parent="WioVrjb9ytI4kB3D4JNt-59">
          <mxGeometry y="56" width="146" height="30" as="geometry" />
        </mxCell>
        <mxCell id="WioVrjb9ytI4kB3D4JNt-62" value="preco" style="text;strokeColor=none;fillColor=none;spacingLeft=4;spacingRight=4;overflow=hidden;rotatable=0;points=[[0,0.5],[1,0.5]];portConstraint=eastwest;fontSize=12;whiteSpace=wrap;html=1;" vertex="1" parent="WioVrjb9ytI4kB3D4JNt-59">
          <mxGeometry y="86" width="146" height="25" as="geometry" />
        </mxCell>
        <mxCell id="WioVrjb9ytI4kB3D4JNt-69" value="fornecedor" style="text;strokeColor=none;fillColor=none;spacingLeft=4;spacingRight=4;overflow=hidden;rotatable=0;points=[[0,0.5],[1,0.5]];portConstraint=eastwest;fontSize=12;whiteSpace=wrap;html=1;" vertex="1" parent="WioVrjb9ytI4kB3D4JNt-59">
          <mxGeometry y="111" width="146" height="25" as="geometry" />
        </mxCell>
        <mxCell id="WioVrjb9ytI4kB3D4JNt-72" value="cor" style="text;strokeColor=none;fillColor=none;spacingLeft=4;spacingRight=4;overflow=hidden;rotatable=0;points=[[0,0.5],[1,0.5]];portConstraint=eastwest;fontSize=12;whiteSpace=wrap;html=1;" vertex="1" parent="WioVrjb9ytI4kB3D4JNt-59">
          <mxGeometry y="136" width="146" height="25" as="geometry" />
        </mxCell>
        <mxCell id="WioVrjb9ytI4kB3D4JNt-70" value="marca" style="text;strokeColor=none;fillColor=none;spacingLeft=4;spacingRight=4;overflow=hidden;rotatable=0;points=[[0,0.5],[1,0.5]];portConstraint=eastwest;fontSize=12;whiteSpace=wrap;html=1;" vertex="1" parent="WioVrjb9ytI4kB3D4JNt-59">
          <mxGeometry y="161" width="146" height="25" as="geometry" />
        </mxCell>
        <mxCell id="WioVrjb9ytI4kB3D4JNt-71" value="tamanho" style="text;strokeColor=none;fillColor=none;spacingLeft=4;spacingRight=4;overflow=hidden;rotatable=0;points=[[0,0.5],[1,0.5]];portConstraint=eastwest;fontSize=12;whiteSpace=wrap;html=1;" vertex="1" parent="WioVrjb9ytI4kB3D4JNt-59">
          <mxGeometry y="186" width="146" height="25" as="geometry" />
        </mxCell>
        <mxCell id="WioVrjb9ytI4kB3D4JNt-98" style="edgeStyle=none;curved=1;rounded=0;orthogonalLoop=1;jettySize=auto;html=1;entryX=1;entryY=0.5;entryDx=0;entryDy=0;fontSize=12;startSize=8;endSize=8;" edge="1" parent="1" source="WioVrjb9ytI4kB3D4JNt-78" target="WioVrjb9ytI4kB3D4JNt-58">
          <mxGeometry relative="1" as="geometry" />
        </mxCell>
        <mxCell id="WioVrjb9ytI4kB3D4JNt-78" value="vendas" style="swimlane;fontStyle=0;childLayout=stackLayout;horizontal=1;startSize=26;horizontalStack=0;resizeParent=1;resizeParentMax=0;resizeLast=0;collapsible=1;marginBottom=0;align=center;fontSize=14;" vertex="1" parent="1">
          <mxGeometry x="495" y="-66" width="160" height="266" as="geometry">
            <mxRectangle x="129" y="194" width="80" height="29" as="alternateBounds" />
          </mxGeometry>
        </mxCell>
        <mxCell id="WioVrjb9ytI4kB3D4JNt-79" value="ides" style="text;strokeColor=none;fillColor=none;spacingLeft=4;spacingRight=4;overflow=hidden;rotatable=0;points=[[0,0.5],[1,0.5]];portConstraint=eastwest;fontSize=12;whiteSpace=wrap;html=1;" vertex="1" parent="WioVrjb9ytI4kB3D4JNt-78">
          <mxGeometry y="26" width="160" height="30" as="geometry" />
        </mxCell>
        <mxCell id="WioVrjb9ytI4kB3D4JNt-80" value="nome" style="text;strokeColor=none;fillColor=none;spacingLeft=4;spacingRight=4;overflow=hidden;rotatable=0;points=[[0,0.5],[1,0.5]];portConstraint=eastwest;fontSize=12;whiteSpace=wrap;html=1;" vertex="1" parent="WioVrjb9ytI4kB3D4JNt-78">
          <mxGeometry y="56" width="160" height="30" as="geometry" />
        </mxCell>
        <mxCell id="WioVrjb9ytI4kB3D4JNt-85" value="tipo" style="text;strokeColor=none;fillColor=none;spacingLeft=4;spacingRight=4;overflow=hidden;rotatable=0;points=[[0,0.5],[1,0.5]];portConstraint=eastwest;fontSize=12;whiteSpace=wrap;html=1;" vertex="1" parent="WioVrjb9ytI4kB3D4JNt-78">
          <mxGeometry y="86" width="160" height="30" as="geometry" />
        </mxCell>
        <mxCell id="WioVrjb9ytI4kB3D4JNt-86" value="preco" style="text;strokeColor=none;fillColor=none;spacingLeft=4;spacingRight=4;overflow=hidden;rotatable=0;points=[[0,0.5],[1,0.5]];portConstraint=eastwest;fontSize=12;whiteSpace=wrap;html=1;" vertex="1" parent="WioVrjb9ytI4kB3D4JNt-78">
          <mxGeometry y="116" width="160" height="30" as="geometry" />
        </mxCell>
        <mxCell id="WioVrjb9ytI4kB3D4JNt-83" value="cor" style="text;strokeColor=none;fillColor=none;spacingLeft=4;spacingRight=4;overflow=hidden;rotatable=0;points=[[0,0.5],[1,0.5]];portConstraint=eastwest;fontSize=12;whiteSpace=wrap;html=1;" vertex="1" parent="WioVrjb9ytI4kB3D4JNt-78">
          <mxGeometry y="146" width="160" height="30" as="geometry" />
        </mxCell>
        <mxCell id="WioVrjb9ytI4kB3D4JNt-81" value="marca" style="text;strokeColor=none;fillColor=none;spacingLeft=4;spacingRight=4;overflow=hidden;rotatable=0;points=[[0,0.5],[1,0.5]];portConstraint=eastwest;fontSize=12;whiteSpace=wrap;html=1;" vertex="1" parent="WioVrjb9ytI4kB3D4JNt-78">
          <mxGeometry y="176" width="160" height="30" as="geometry" />
        </mxCell>
        <mxCell id="WioVrjb9ytI4kB3D4JNt-82" value="tamanho" style="text;strokeColor=none;fillColor=none;spacingLeft=4;spacingRight=4;overflow=hidden;rotatable=0;points=[[0,0.5],[1,0.5]];portConstraint=eastwest;fontSize=12;whiteSpace=wrap;html=1;" vertex="1" parent="WioVrjb9ytI4kB3D4JNt-78">
          <mxGeometry y="206" width="160" height="30" as="geometry" />
        </mxCell>
        <mxCell id="WioVrjb9ytI4kB3D4JNt-84" value="quantidade" style="text;strokeColor=none;fillColor=none;spacingLeft=4;spacingRight=4;overflow=hidden;rotatable=0;points=[[0,0.5],[1,0.5]];portConstraint=eastwest;fontSize=12;whiteSpace=wrap;html=1;" vertex="1" parent="WioVrjb9ytI4kB3D4JNt-78">
          <mxGeometry y="236" width="160" height="30" as="geometry" />
        </mxCell>
        <mxCell id="WioVrjb9ytI4kB3D4JNt-101" style="edgeStyle=none;curved=1;rounded=0;orthogonalLoop=1;jettySize=auto;html=1;exitX=0.5;exitY=0;exitDx=0;exitDy=0;fontSize=12;startSize=8;endSize=8;" edge="1" parent="1" source="WioVrjb9ytI4kB3D4JNt-55" target="WioVrjb9ytI4kB3D4JNt-55">
          <mxGeometry relative="1" as="geometry" />
        </mxCell>
      </root>
    </mxGraphModel>
  </diagram>
</mxfile>
